<?xml version="1.0" encoding="utf-8"?>
<!-- Generator: Adobe Illustrator 24.3.0, SVG Export Plug-In . SVG Version: 6.00 Build 0)  -->
<svg version="1.1" id="Layer_1" xmlns="http://www.w3.org/2000/svg" xmlns:xlink="http://www.w3.org/1999/xlink" x="0px" y="0px"
	 viewBox="0 0 298 204" style="enable-background:new 0 0 298 204;" xml:space="preserve">
<style type="text/css">
	.st0{fill:#FFFFFF;}
</style>
<g>
	<g>
		<g>
			<path class="st0" d="M159.25,56.18c1.26,5.42,2.32,10.88,3.06,16.39c-0.23-1.73-0.46-3.46-0.7-5.18
				c1.2,9.14,1.53,18.39,0.3,27.55c0.23-1.73,0.46-3.46,0.7-5.18c-0.84,6-2.32,11.88-4.66,17.48c0.66-1.55,1.31-3.11,1.97-4.66
				c-2.25,5.3-5.19,10.26-8.7,14.82c1.02-1.32,2.03-2.63,3.05-3.95c-3.7,4.74-7.98,8.98-12.72,12.67c1.32-1.02,2.63-2.03,3.95-3.05
				c-4.96,3.82-10.37,7-16.12,9.46c1.55-0.66,3.11-1.31,4.66-1.97c-5.64,2.37-11.55,4.03-17.61,4.85c1.73-0.23,3.46-0.46,5.18-0.7
				c-5.47,0.71-10.98,0.73-16.45,0.02c1.73,0.23,3.46,0.46,5.18,0.7c-5.76-0.78-11.36-2.35-16.72-4.59
				c1.55,0.66,3.11,1.31,4.66,1.97c-5.69-2.41-11.02-5.55-15.92-9.32c1.32,1.02,2.63,2.03,3.95,3.05
				c-4.88-3.79-9.27-8.17-13.07-13.06c1.02,1.32,2.03,2.63,3.05,3.95c-3.61-4.7-6.64-9.81-8.96-15.27c0.66,1.55,1.31,3.11,1.97,4.66
				c-1.69-4.05-2.98-8.25-3.83-12.56c-0.6-2.54-1.77-4.75-3.49-6.63c-1.37-2.12-3.2-3.8-5.47-5.02c-2.24-1.43-4.65-2.2-7.25-2.31
				c-2.59-0.58-5.18-0.46-7.78,0.35c-4.72,1.53-9.27,4.45-11.65,8.96c-0.66,1.55-1.31,3.11-1.97,4.66c-0.93,3.46-0.93,6.91,0,10.37
				c0.71,3.61,1.72,7.15,3.03,10.58c1.89,4.92,3.98,9.83,6.65,14.4c2.63,4.51,5.83,8.66,9.11,12.71c2.32,2.86,4.85,5.54,7.57,8.02
				c3.9,3.55,8.12,6.81,12.5,9.74c3.05,2.04,6.27,3.85,9.6,5.4c4.73,2.19,9.6,4.25,14.62,5.68c5.1,1.45,10.36,2.17,15.62,2.75
				c3.69,0.4,7.41,0.47,11.11,0.21c5.35-0.38,10.77-1.12,15.99-2.39c3.61-0.88,7.14-2.06,10.57-3.49c4.91-2.05,9.72-4.12,14.27-6.89
				c4.54-2.77,8.81-6.05,12.87-9.46c2.85-2.39,5.52-5,7.96-7.81c3.44-3.94,6.69-8.15,9.47-12.59c2.82-4.5,4.89-9.31,6.9-14.22
				c1.62-3.93,2.83-8.02,3.68-12.19c1.27-6.24,2.07-12.67,2.28-19.04c0.36-11.11-1.16-22.34-3.29-33.22
				c-0.46-2.34-0.97-4.68-1.51-7.01c-0.6-2.54-1.77-4.75-3.49-6.63c-1.37-2.12-3.2-3.8-5.47-5.02c-2.24-1.43-4.65-2.2-7.25-2.31
				c-2.59-0.58-5.18-0.46-7.78,0.35c-4.72,1.53-9.27,4.45-11.65,8.96C158.71,45.91,158.02,50.9,159.25,56.18L159.25,56.18z"/>
		</g>
	</g>
	<g>
		<g>
			<path class="st0" d="M243.34,157.96c5,0,10.25-2.18,13.79-5.71c1.9-1.77,3.25-3.86,4.03-6.28c1.22-2.32,1.78-4.83,1.68-7.51
				c-0.23-5.04-1.88-10.27-5.71-13.79c-3.82-3.5-8.51-5.71-13.79-5.71c-5,0-10.25,2.18-13.79,5.71c-1.9,1.77-3.25,3.86-4.03,6.28
				c-1.22,2.32-1.78,4.83-1.68,7.51c0.23,5.04,1.88,10.27,5.71,13.79C233.37,155.75,238.06,157.96,243.34,157.96L243.34,157.96z"/>
		</g>
	</g>
</g>
</svg>
