<?xml version="1.0" encoding="utf-8"?>
<!-- Generator: Adobe Illustrator 25.4.1, SVG Export Plug-In . SVG Version: 6.00 Build 0)  -->
<svg version="1.1" id="Layer_1" xmlns="http://www.w3.org/2000/svg" xmlns:xlink="http://www.w3.org/1999/xlink" x="0px" y="0px"
	 viewBox="0 0 105.7 92.9" style="enable-background:new 0 0 105.7 92.9;" xml:space="preserve">
<style type="text/css">
	.st0{fill:#FFFFFF;}
</style>
<g>
	<g>
		<path class="st0" d="M65.2,90.6c-2.1,0.3-4-1.2-4.4-3.3c-1.4-8.7-8.4-14.8-27-19.4C13.4,62.7,4.6,56.1,4.6,42.2
			c0-12.7,9.2-24.5,29.9-24.5c18.2,0,27.4,9.5,30.4,19.7c0.7,2.5-1.1,5-3.7,5l0,0c-1.7,0-3.2-1.1-3.7-2.7
			c-2.8-8.9-9.6-15.1-23.4-15.1c-13.9,0-21.5,6.5-21.5,17.2c0,10.6,6.3,14.7,24.1,19.2C60.8,66.9,68,76,69.4,86
			c0.3,2.1-1.2,4.1-3.3,4.4L65.2,90.6z"/>
	</g>
</g>
<g>
	<path class="st0" d="M90.6,39.3c-0.5-0.2-0.7-0.8-0.5-1.2c1.2-3-0.2-6.1-5.3-10.7c-5.3-4.9-6.9-8.3-4.7-12.5
		c2.1-3.8,6.8-5.9,13-2.5c5.5,3,6.7,7.4,6,10.9c-0.2,0.9-1.2,1.3-1.9,0.9l0,0c-0.5-0.3-0.8-0.8-0.7-1.4c0.6-3.2-0.4-6.1-4.6-8.4
		s-7.6-1.5-9.3,1.7c-1.7,3.2-0.5,5.5,4.2,9.7c6.5,5.9,6.6,9.8,5.1,13.1C91.7,39.3,91.1,39.5,90.6,39.3L90.6,39.3z"/>
</g>
<path class="st0" d="M63.4,90.3l-1.7-1c-2.1-1.2-2.8-3.9-1.6-6l23.4-40.5c1.2-2.1,3.9-2.8,6-1.6l1.7,1c2.1,1.2,2.8,3.9,1.6,6
	L69.3,88.7C68.1,90.8,65.4,91.5,63.4,90.3z"/>
</svg>
