<?xml version="1.0" encoding="utf-8"?>
<!-- Generator: Adobe Illustrator 24.3.0, SVG Export Plug-In . SVG Version: 6.00 Build 0)  -->
<svg version="1.1" id="Layer_1" xmlns="http://www.w3.org/2000/svg" xmlns:xlink="http://www.w3.org/1999/xlink" x="0px" y="0px"
	 viewBox="0 0 113 94" style="enable-background:new 0 0 113 94;" xml:space="preserve">
<style type="text/css">
	.st0{fill:#FFFFFF;}
</style>
<g>
	<g>
		<path class="st0" d="M53.32,32.33c0.23,0.98,0.43,1.97,0.59,2.96c0.03,0.21,0.23,1.2,0.06,0.36c-0.16-0.78-0.01-0.03,0,0.13
			c0.05,0.62,0.11,1.23,0.13,1.85c0.04,1-0.05,1.99-0.08,3c-0.02,0.71,0.08-0.43,0.08-0.45c0,0.27-0.11,0.66-0.16,0.9
			c-0.11,0.53-0.24,1.05-0.39,1.56c-0.12,0.4-0.33,0.82-0.42,1.23c-0.01,0.03,0.55-1.18,0.25-0.62c-0.11,0.21-0.2,0.43-0.31,0.64
			c-0.38,0.74-0.85,1.42-1.31,2.11c-0.34,0.52,0.4-0.51,0.4-0.51c-0.11,0.05-0.41,0.49-0.46,0.54c-0.24,0.27-0.48,0.52-0.73,0.78
			c-0.29,0.29-0.6,0.58-0.91,0.85c-1.03,0.89,0.95-0.64-0.19,0.16c-0.63,0.45-1.29,0.85-1.97,1.21c-0.31,0.16-0.66,0.29-0.96,0.47
			c1.13-0.69,0.89-0.35,0.45-0.2c-0.22,0.08-0.44,0.16-0.67,0.24c-0.79,0.26-1.59,0.45-2.41,0.61c-1.08,0.21,1.28-0.09,0.19-0.03
			c-0.47,0.02-0.94,0.06-1.42,0.05c-0.36,0-0.71-0.03-1.07-0.05c-1.03-0.05,1.36,0.25,0.01,0c-0.88-0.17-1.72-0.42-2.56-0.71
			c-1.02-0.34,1.09,0.54,0.12,0.06c-0.37-0.18-0.74-0.36-1.11-0.57c-0.31-0.17-0.62-0.36-0.92-0.55c-0.19-0.12-1.49-1.07-0.7-0.46
			c0.76,0.59-0.39-0.35-0.62-0.57c-0.35-0.32-0.68-0.66-1-1.01c-0.28-0.3-0.52-0.65-0.81-0.95c0.08,0.08,0.84,1.18,0.3,0.36
			c-0.13-0.2-0.27-0.39-0.4-0.59c-0.25-0.4-0.49-0.81-0.71-1.23c-0.27-0.51-0.55-1.77-0.13-0.18c-0.24-0.92-0.6-1.79-0.79-2.73
			c-0.63-3.08-4.44-5.14-7.38-4.19c-3.26,1.06-4.87,4.08-4.19,7.38c2,9.77,10.83,16.91,20.54,17.88c9.5,0.95,18.97-5.36,22.61-13.97
			c2.56-6.06,2.06-12.69,0.62-18.97c-0.7-3.06-4.39-5.16-7.38-4.19C54.3,25.99,52.56,29.05,53.32,32.33L53.32,32.33z"/>
	</g>
</g>
<g>
	<path class="st0" d="M75.1,52.17"/>
	<g>
		<path class="st0" d="M75.1,58.17c3.14,0,6.15-2.76,6-6c-0.15-3.25-2.64-6-6-6c-3.14,0-6.15,2.76-6,6
			C69.24,55.42,71.74,58.17,75.1,58.17L75.1,58.17z"/>
	</g>
</g>
</svg>
