<?xml version="1.0" encoding="utf-8"?>
<!-- Generator: Adobe Illustrator 24.3.0, SVG Export Plug-In . SVG Version: 6.00 Build 0)  -->
<svg version="1.1" id="Layer_1" xmlns="http://www.w3.org/2000/svg" xmlns:xlink="http://www.w3.org/1999/xlink" x="0px" y="0px"
	 viewBox="0 0 118 82" style="enable-background:new 0 0 118 82;" xml:space="preserve">
<style type="text/css">
	.st0{fill:#2AC6DC;}
	.st1{fill:#F84816;}
</style>
<g>
	<g>
		<path class="st0" d="M58.32,8.33c0.23,0.98,0.43,1.97,0.59,2.96c0.03,0.21,0.23,1.2,0.06,0.36c-0.16-0.78-0.01-0.03,0,0.13
			c0.05,0.62,0.11,1.23,0.13,1.85c0.04,1-0.05,1.99-0.08,3c-0.02,0.71,0.08-0.43,0.08-0.45c0,0.27-0.11,0.66-0.16,0.9
			c-0.11,0.53-0.24,1.05-0.39,1.56c-0.12,0.4-0.33,0.82-0.42,1.23c-0.01,0.03,0.55-1.18,0.25-0.62c-0.11,0.21-0.2,0.43-0.31,0.64
			c-0.38,0.74-0.85,1.42-1.31,2.11c-0.34,0.52,0.4-0.51,0.4-0.51c-0.11,0.05-0.41,0.49-0.46,0.54c-0.24,0.27-0.48,0.52-0.73,0.78
			c-0.29,0.29-0.6,0.58-0.91,0.85c-1.03,0.89,0.95-0.64-0.19,0.16c-0.63,0.45-1.29,0.85-1.97,1.21c-0.31,0.16-0.66,0.29-0.96,0.47
			c1.13-0.69,0.89-0.35,0.45-0.2c-0.22,0.08-0.44,0.16-0.67,0.24c-0.79,0.26-1.59,0.45-2.41,0.61c-1.08,0.21,1.28-0.09,0.19-0.03
			c-0.47,0.02-0.94,0.06-1.42,0.05c-0.36,0-0.71-0.03-1.07-0.05c-1.03-0.05,1.36,0.25,0.01,0c-0.88-0.17-1.72-0.42-2.56-0.71
			c-1.02-0.34,1.09,0.54,0.12,0.06c-0.37-0.18-0.74-0.36-1.11-0.57c-0.31-0.17-0.62-0.36-0.92-0.55c-0.19-0.12-1.49-1.07-0.7-0.46
			c0.76,0.59-0.39-0.35-0.62-0.57c-0.35-0.32-0.68-0.66-1-1.01c-0.28-0.3-0.52-0.65-0.81-0.95c0.08,0.08,0.84,1.18,0.3,0.36
			c-0.13-0.2-0.27-0.39-0.4-0.59c-0.25-0.4-0.49-0.81-0.71-1.23c-0.27-0.51-0.55-1.77-0.13-0.18c-0.24-0.92-0.6-1.79-0.79-2.73
			c-0.63-3.08-4.44-5.14-7.38-4.19c-3.26,1.06-4.87,4.08-4.19,7.38c2,9.77,10.83,16.91,20.54,17.88c9.5,0.95,18.97-5.36,22.61-13.97
			c2.56-6.06,2.06-12.69,0.62-18.97c-0.7-3.06-4.39-5.16-7.38-4.19C59.3,1.99,57.56,5.05,58.32,8.33L58.32,8.33z"/>
	</g>
</g>
<g>
	<g>
		<path class="st1" d="M80.1,34.17c3.14,0,6.15-2.76,6-6c-0.15-3.25-2.64-6-6-6c-3.14,0-6.15,2.76-6,6
			C74.24,31.42,76.74,34.17,80.1,34.17L80.1,34.17z"/>
	</g>
</g>
<g>
	<g>
		<path class="st0" d="M35.17,59.21c0.73,0,1.52,0.05,2.25,0.16c0.16-1.78,0.21-3.72,0.47-5.45c0.21-1.36,1.78-2.2,3.25-2.2
			c1.47,0,2.72,0.79,2.57,2.57c-0.16,1.78-0.37,3.61-0.58,5.39c1.1,0.05,2.25,0.1,3.3,0.21c3.04,0.37,2.67,3.77-0.21,3.77
			c-1.1,0-2.25-0.1-3.4-0.16c-0.16,1.78-2.2,12.31,1.2,12.52c1.52,0.1,3.88-2.72,4.97-4.24c0.47-0.68,1.21-1,1.94-1
			c1.21,0,2.41,0.84,2.41,2.3c0,3.19-6.34,6.6-10.16,6.6c-8.69,0-6.49-10.95-6.07-16.44c-0.84-0.05-1.68-0.1-2.41-0.21
			C31.71,62.61,32.39,59.21,35.17,59.21z"/>
		<path class="st0" d="M63.18,79.89c-3.25,0-6.44-1.1-6.44-4.5c0-4.82,4.61-8.17,10.63-8.54c-0.05-0.68-0.31-1.68-1.21-1.68
			c-2.57,0-3.67,2.46-5.66,2.46c-1.15,0-2.09-0.84-2.09-2.04c0-2.83,5.97-4.24,8.17-4.24c5.76,0,6.86,4.66,6.86,9.32
			c0,2.36,0.31,4.71,0.31,7.07c0,1.36-1.57,2.2-3.09,2.2c-0.89,0-1.83-0.26-2.36-0.94C67.01,79.53,65.07,79.89,63.18,79.89z
			 M64.28,76.28c1.15,0,2.72-0.63,3.46-1.1l-0.1-4.77c-3.19,0.1-4.97,1.78-4.97,4.35C62.66,75.91,63.34,76.28,64.28,76.28z"/>
		<path class="st0" d="M78.11,52.45c0.05-1.36,1.57-2.2,3.09-2.2s3.04,0.89,2.98,3.09c-0.05,3.93-0.21,7.8-0.26,11.73
			c2.51-1.47,4.92-3.09,7.49-4.5c0.52-0.26,1.05-0.42,1.52-0.42c1.78,0,2.88,1.94,0.89,3.51c-2.83,2.2-5.97,4.03-8.9,6.02
			c2.99,2.46,6.08,4.82,9.06,7.28c1.99,1.62,0.84,3.4-0.94,3.4c-0.52,0-1.1-0.16-1.68-0.52c-2.62-1.73-5.03-3.93-7.59-5.81
			c0,1.41,0.16,3.04-0.05,4.45c-0.21,1.26-1.68,1.89-3.09,1.89c-1.31,0-2.46-0.52-2.51-1.62C77.95,73.92,77.84,56.59,78.11,52.45z"
			/>
		<path class="st1" d="M101.72,63.03c0.37-0.16,0.68-0.21,1-0.21c0.21,0,0.42,0,0.58,0c0.31,0,0.68,0,1-0.21
			c1.47-0.84,3.19-1.26,4.87-1.26c3.98,0,7.75,2.51,7.75,8.96c0,4.61-2.36,9.74-10.21,9.74c-7.12,0-9.06-5.81-9.06-9.58
			C97.64,67.53,99.05,64.34,101.72,63.03z M108.06,65.54c-2.04,0-4.35,2.3-4.35,5.87c0,3.19,1.62,4.82,3.35,4.82
			c1.78,0,3.67-1.73,3.93-5.13C111.3,67.22,109.79,65.54,108.06,65.54z"/>
	</g>
</g>
<g>
	<g>
		<path class="st0" d="M3.46,51.77c0.26-1.15,1.73-1.73,3.14-1.73c1.52,0,3.04,0.63,3.04,1.78c-0.42,3.4-4.66,24.35,1.57,24.35
			c9.74,0,9.79-16.76,9.79-23.67c0-1.73,1.94-2.67,3.61-2.67c1.31,0,2.41,0.58,2.46,1.68c0.37,8.38,0.42,18.12,0.42,26.71
			c0,1.26-1.52,2.04-2.98,2.04c-1.36,0-2.72-0.63-2.93-2.09c-0.16-1-0.1-2.62-0.05-3.88c-2.09,3.04-5.34,6.02-10.63,6.02
			C-0.73,80.31,1.37,61.41,3.46,51.77z"/>
	</g>
</g>
</svg>
